<svg width="25" height="24" viewBox="0 0 25 24" fill="none" xmlns="http://www.w3.org/2000/svg">
<path fill-rule="evenodd" clip-rule="evenodd" d="M7.5 3.5C7.5 3.22386 7.72386 3 8 3C8.27614 3 8.5 3.22386 8.5 3.5V5.5C8.5 5.77614 8.27614 6 8 6C7.72386 6 7.5 5.77614 7.5 5.5V3.5ZM12 3.5C12 3.22386 12.2239 3 12.5 3C12.7761 3 13 3.22386 13 3.5V5.5C13 5.77614 12.7761 6 12.5 6C12.2239 6 12 5.77614 12 5.5V3.5ZM17 3C16.7239 3 16.5 3.22386 16.5 3.5V5.5C16.5 5.77614 16.7239 6 17 6C17.2761 6 17.5 5.77614 17.5 5.5V3.5C17.5 3.22386 17.2761 3 17 3Z" fill="white"/>
<path fill-rule="evenodd" clip-rule="evenodd" d="M6.5 5H5.5C4.39543 5 3.5 5.89543 3.5 7V19C3.5 20.1046 4.39543 21 5.5 21H19.5C20.6046 21 21.5 20.1046 21.5 19V7C21.5 5.89543 20.6046 5 19.5 5H18.5V5.5C18.5 6.32843 17.8284 7 17 7C16.1716 7 15.5 6.32843 15.5 5.5V5H14V5.5C14 6.32843 13.3284 7 12.5 7C11.6716 7 11 6.32843 11 5.5V5H9.5V5.5C9.5 6.32843 8.82843 7 8 7C7.17157 7 6.5 6.32843 6.5 5.5V5ZM7.5 5H8.5V5.5C8.5 5.77614 8.27614 6 8 6C7.72386 6 7.5 5.77614 7.5 5.5V5ZM12 5V5.5C12 5.77614 12.2239 6 12.5 6C12.7761 6 13 5.77614 13 5.5V5H12ZM16.5 5V5.5C16.5 5.77614 16.7239 6 17 6C17.2761 6 17.5 5.77614 17.5 5.5V5H16.5ZM4.5 10C4.5 9.44771 4.94772 9 5.5 9H19.5C20.0523 9 20.5 9.44772 20.5 10V19C20.5 19.5523 20.0523 20 19.5 20H5.5C4.94772 20 4.5 19.5523 4.5 19V10Z" fill="white"/>
<path d="M10.4714 17.096C10.0608 17.096 9.69277 17.0187 9.36744 16.864C9.04744 16.7093 8.79677 16.4933 8.61544 16.216C8.43944 15.9387 8.35144 15.624 8.35144 15.272H9.56744C9.56744 15.416 9.60477 15.5467 9.67944 15.664C9.75944 15.776 9.8661 15.864 9.99944 15.928C10.1381 15.992 10.2954 16.024 10.4714 16.024C10.6741 16.024 10.8528 15.9893 11.0074 15.92C11.1674 15.8453 11.2901 15.744 11.3754 15.616C11.4661 15.4827 11.5114 15.3333 11.5114 15.168C11.5114 14.992 11.4661 14.8347 11.3754 14.696C11.2901 14.5573 11.1701 14.4507 11.0154 14.376C10.8608 14.296 10.6848 14.256 10.4874 14.256H10.3274V13.216H10.5034C10.9248 13.216 11.2981 13.2987 11.6234 13.464C11.9541 13.6293 12.2101 13.8613 12.3914 14.16C12.5781 14.4533 12.6714 14.7893 12.6714 15.168C12.6714 15.5413 12.5781 15.8747 12.3914 16.168C12.2048 16.4613 11.9434 16.6907 11.6074 16.856C11.2768 17.016 10.8981 17.096 10.4714 17.096ZM9.53544 13.44L10.7434 12.176H12.3194L10.3274 14.256L9.53544 13.44ZM8.64744 11.12H12.2394L12.3194 12.176H8.64744V11.12ZM16.24 17.056L15.024 17.04V12.432L13.704 13.048L13.272 11.992L15.032 11.168H16.24V17.056Z" fill="white"/>
</svg>
