<svg width="24" height="24" viewBox="0 0 24 24" fill="none" xmlns="http://www.w3.org/2000/svg">
<path fill-rule="evenodd" clip-rule="evenodd" d="M12.6139 3.47749C12.2528 3.19663 11.7472 3.19663 11.3861 3.47749L3.38606 9.69972C3.14247 9.88917 3 10.1805 3 10.4891V20C3 20.5523 3.44772 21 4 21H8C8.55228 21 9 20.5523 9 20V16C9 14.3431 10.3431 13 12 13C13.6569 13 15 14.3431 15 16V20C15 20.5523 15.4477 21 16 21H20C20.5523 21 21 20.5523 21 20V10.4891C21 10.1805 20.8575 9.88917 20.6139 9.69972L12.6139 3.47749Z" fill="white"/>
</svg>
