<svg width="24" height="24" viewBox="0 0 24 24" fill="none" xmlns="http://www.w3.org/2000/svg">
<path fill-rule="evenodd" clip-rule="evenodd" d="M12 3C10.8954 3 10 3.89543 10 5C10 5.17198 9.88661 5.32245 9.72397 5.37834C9.45057 5.47229 9.18483 5.5827 8.92793 5.70838C8.77318 5.78408 8.58628 5.75785 8.46447 5.63604C7.68342 4.85499 6.41709 4.85499 5.63604 5.63604C4.85499 6.41709 4.85499 7.68342 5.63604 8.46447C5.75785 8.58628 5.78408 8.77319 5.70838 8.92793C5.5827 9.18483 5.47229 9.45057 5.37834 9.72397C5.32245 9.88661 5.17198 10 5 10C3.89543 10 3 10.8954 3 12C3 13.1046 3.89543 14 5 14C5.17198 14 5.32245 14.1134 5.37834 14.276C5.47229 14.5494 5.5827 14.8152 5.70838 15.0721C5.78408 15.2268 5.75785 15.4137 5.63604 15.5355C4.85499 16.3166 4.85499 17.5829 5.63604 18.364C6.41709 19.145 7.68342 19.145 8.46447 18.364C8.58628 18.2422 8.77319 18.2159 8.92793 18.2916C9.18483 18.4173 9.45058 18.5277 9.72397 18.6217C9.88661 18.6775 10 18.828 10 19C10 20.1046 10.8954 21 12 21C13.1046 21 14 20.1046 14 19C14 18.828 14.1134 18.6775 14.276 18.6217C14.5494 18.5277 14.8152 18.4173 15.0721 18.2916C15.2268 18.2159 15.4137 18.2422 15.5355 18.364C16.3166 19.145 17.5829 19.145 18.364 18.364C19.145 17.5829 19.145 16.3166 18.364 15.5355C18.2422 15.4137 18.2159 15.2268 18.2916 15.0721C18.4173 14.8152 18.5277 14.5494 18.6217 14.276C18.6775 14.1134 18.828 14 19 14C20.1046 14 21 13.1046 21 12C21 10.8954 20.1046 10 19 10C18.828 10 18.6775 9.88661 18.6217 9.72397C18.5277 9.45057 18.4173 9.18483 18.2916 8.92793C18.2159 8.77319 18.2422 8.58628 18.364 8.46447C19.145 7.68342 19.145 6.41709 18.364 5.63604C17.5829 4.85499 16.3166 4.85499 15.5355 5.63604C15.4137 5.75785 15.2268 5.78408 15.0721 5.70838C14.8152 5.5827 14.5494 5.47229 14.276 5.37834C14.1134 5.32245 14 5.17198 14 5C14 3.89543 13.1046 3 12 3ZM12 16C14.2091 16 16 14.2091 16 12C16 9.79086 14.2091 8 12 8C9.79086 8 8 9.79086 8 12C8 14.2091 9.79086 16 12 16Z" fill="white"/>
</svg>
